# xmcd
#
# Track frame offsets:
#	150
#	12725
#	27963
#	41352
#	54607
#	66145
#	80477
#	93590
#	103944
#	117275
#
# Disc length: 1735 seconds
# Revision: 2
# Processed by: cddbd v1.5.2PL0 Copyright (c) Steve Scherf et al.
# Submitted via: dBpowerAMP V12.0
#
DISCID=8406c50a
DTITLE=Bonita Mercer - You'll Be The One
DYEAR=2007
DGENRE=Country
TTITLE0=You'll Be The One
TTITLE1=The Lyin' Gets Easy
TTITLE2=What I'm Looking For
TTITLE3=Home To Canada
TTITLE4=The Keys In The Mailbox
TTITLE5=Who's Your Baby Now
TTITLE6=Tennessee Waltz
TTITLE7=Two-Steppin' Out On Me
TTITLE8=The Star
TTITLE9=Less Of Me
EXTD=
EXTT0=
EXTT1=
EXTT2=
EXTT3=
EXTT4=
EXTT5=
EXTT6=
EXTT7=
EXTT8=
EXTT9=
PLAYORDER=
